<svg id="圖層_1" data-name="圖層 1" xmlns="http://www.w3.org/2000/svg" viewBox="0 0 50 50"><defs><style>.cls-1{fill:#4a4a4a;}</style></defs><path class="cls-1" d="M28.13,33.16a11.19,11.19,0,0,1-6.79-2.27,1.32,1.32,0,0,1-.53-.89,1.36,1.36,0,0,1,.24-1l1.59-1.62a1.27,1.27,0,0,1,.82-.41,1.29,1.29,0,0,1,.89.21,6.5,6.5,0,0,0,8.4-.69l7.34-7.38a6.73,6.73,0,0,0,1-8.4,6.41,6.41,0,0,0-9.83-1.1c-.37.33-4.35,4.23-4.35,4.23a1.42,1.42,0,0,1-.43.29,1.25,1.25,0,0,1-.51.1,1.24,1.24,0,0,1-.5-.1,1.42,1.42,0,0,1-.43-.29l-1.47-1.47a1.37,1.37,0,0,1-.39-.95,1.33,1.33,0,0,1,.39-.94l3.79-3.8C31.52,2.49,38.28,1.8,42.8,5.55a11.35,11.35,0,0,1,1.55,15.91c-.23.29-8.28,8.4-8.28,8.4A11.23,11.23,0,0,1,28.13,33.16Z"/><path class="cls-1" d="M21.89,16.83a11.16,11.16,0,0,1,6.8,2.28A1.37,1.37,0,0,1,29,21c0,.06-1.58,1.63-1.58,1.63a1.35,1.35,0,0,1-.81.41,1.33,1.33,0,0,1-.89-.21,6.5,6.5,0,0,0-8.4.69L10,30.91a6.68,6.68,0,0,0-1,8.4,6.4,6.4,0,0,0,9.82,1.1c.38-.33,4.36-4.24,4.36-4.24a1.19,1.19,0,0,1,.42-.28,1.35,1.35,0,0,1,1,0,1.33,1.33,0,0,1,.43.28l1.46,1.48a1.34,1.34,0,0,1,0,1.89l-3.78,3.8c-4.15,4.17-10.91,4.86-15.43,1.11A11.35,11.35,0,0,1,5.64,28.54c.24-.29,8.29-8.4,8.29-8.4a11.22,11.22,0,0,1,8-3.31Z"/></svg>