<svg fill="none" height="28" viewBox="0 0 40 28" width="40" xmlns="http://www.w3.org/2000/svg"><g clip-rule="evenodd" fill-rule="evenodd"><path d="m39.1669 4.37459c-.4643-1.72551-1.8116-3.07334-3.5363-3.537884-3.1215-.836706-15.6306-.836706-15.6306-.836706s-12.51235 0-15.62726.836706c-1.72478.464544-3.07204 1.812374-3.536388 3.537884-.836352 3.11953-.836352 9.63201-.836352 9.63201s0 6.5125.836352 9.632c.464348 1.7255 1.811608 3.0733 3.536388 3.5379 3.1182.8235 15.62726.8235 15.62726.8235s12.5123 0 15.6273-.8367c1.7247-.4646 3.072-1.8124 3.5363-3.5379.8364-3.1195.8364-9.632.8364-9.632s0-6.49928-.8331-9.61881z" fill="#fff"/><path d="m15.9993 20.0086 10.3951-6.0018-10.3951-6.00192z" fill="#4a4a4a"/></g></svg>