<svg id="圖層_1" data-name="圖層 1" xmlns="http://www.w3.org/2000/svg" xmlns:xlink="http://www.w3.org/1999/xlink" viewBox="0 0 50 50"><defs><style>.cls-1{fill:none;}.cls-2{clip-path:url(#clip-path);}.cls-3{fill:url(#未命名漸層_2);}.cls-4{fill:#fff;}</style><clipPath id="clip-path"><rect class="cls-1" x="2" y="2" width="46" height="46"/></clipPath><linearGradient id="未命名漸層_2" x1="316.98" y1="-349.52" x2="278.02" y2="-388.48" gradientTransform="matrix(1, 0, 0, -1, -272.5, -344)" gradientUnits="userSpaceOnUse"><stop offset="0" stop-color="red"/><stop offset="1" stop-color="#850000"/></linearGradient></defs><g class="cls-2"><path class="cls-3" d="M48,36V14A12,12,0,0,0,36,2H14A12,12,0,0,0,2,14V36A12,12,0,0,0,14,48H36A12,12,0,0,0,48,36Z"/><path class="cls-4" d="M37.32,21.65a5.51,5.51,0,0,0-5.52-5.52H17.64a5.5,5.5,0,0,0-5.52,5.52v6.58a5.48,5.48,0,0,0,.42,2.11,5.39,5.39,0,0,0,1.19,1.79,5.5,5.5,0,0,0,3.91,1.62H31.8a5.67,5.67,0,0,0,2.11-.42,5.57,5.57,0,0,0,3-3,5.48,5.48,0,0,0,.42-2.11ZM29,25.46,22.72,28.6c-.25.13-1.09,0-1.09-.33V21.84c0-.29.85-.47,1.09-.33l6.07,3.3C29,24.92,29.26,25.3,29,25.46Z"/></g></svg>