<svg height="100" viewBox="0 0 100 100" width="100" xmlns="http://www.w3.org/2000/svg" xmlns:xlink="http://www.w3.org/1999/xlink"><mask id="a" fill="#fff"><path d="m0 .03154762h99.7747151v99.95654758h-99.7747151z" fill="#fff" fill-rule="evenodd"/></mask><g fill="#fff" fill-rule="evenodd"><path d="m49.8874565.03154762c-13.5486918 0-15.2475755.05753968-20.5685927.30079365-5.3101256.24265873-8.9364176 1.08769841-12.1096211 2.3234127-3.2805348 1.27718254-6.0626326 2.98630952-8.83621529 5.76507936-2.77338463 2.77896827-4.47919935 5.56646827-5.75390673 8.85337297-1.23331949 3.1793651-2.0767215 6.8126985-2.31890996 12.133135-.24278255 5.3313492-.30021072 7.0335317-.30021072 20.6085317s.05742817 15.2769841.30021072 20.6083333c.24218846 5.3202381 1.08559047 8.9537699 2.31890996 12.133135 1.27470738 3.2869047 2.9805221 6.0744047 5.75390673 8.8531746 2.77358269 2.7789682 5.55568049 4.4878968 8.83621529 5.7654762 3.1732035 1.2355158 6.7994955 2.0805555 12.1096211 2.3234127 5.3210172.2430555 7.0199009.3005952 20.5685927.3005952 13.5486919 0 15.2473776-.0575397 20.5683948-.3005952 5.3099275-.2428572 8.9364175-1.0878969 12.109621-2.3234127 3.2807329-1.2775794 6.0626327-2.986508 8.8360173-5.7654762 2.7735827-2.7787699 4.4791994-5.5660715 5.7543028-8.8531746 1.2331215-3.1793651 2.0765235-6.8128969 2.31891-12.133135.2425845-5.3313492.3000127-7.0333333.3000127-20.6083333s-.0574282-15.2771825-.3000127-20.6085317c-.2423865-5.3204365-1.0857885-8.9537699-2.31891-12.133135-1.2751034-3.2869047-2.9807201-6.0744047-5.7543028-8.85337297-2.7733846-2.77876984-5.5552844-4.48789682-8.8360173-5.76507936-3.1732035-1.23571429-6.7996935-2.08075397-12.109621-2.3234127-5.3210172-.24325397-7.0197029-.30079365-20.5683948-.30079365zm0 9.00615079c13.3203654 0 14.8982539.05099207 20.1584764.29126984 4.8641662.22261905 7.505664 1.03670635 9.2635601 1.72123015 2.3286134.906746 3.9904659 1.9900794 5.7362823 3.7390873 1.7456184 1.749008 2.8266542 3.4140873 3.731643 5.7472222.6829991 1.7613096 1.4959048 4.4079365 1.7176964 9.2813492.2400101 5.270635.2909034 6.8515873.2909034 20.1980159 0 13.3462302-.0508933 14.9271826-.2909034 20.1976191-.2217916 4.8736111-1.0346973 7.5202381-1.7176964 9.2815476-.9049888 2.3331349-1.9860246 3.9982143-3.731643 5.7474206-1.7458164 1.749008-3.4076689 2.8321429-5.7362823 3.7388889-1.7578961.6843254-4.3993939 1.4988095-9.2635601 1.7210318-5.2594303.2404761-6.8371208.2914682-20.1584764.2914682-13.3215535 0-14.899046-.0509921-20.1588724-.2914682-4.8639681-.2222223-7.5054659-1.0367064-9.2633621-1.7210318-2.3286133-.906746-3.9904658-1.9898809-5.7360842-3.7388889-1.7456184-1.7492063-2.8268522-3.4142857-3.731841-5.7474206-.6831972-1.7613095-1.49570681-4.4079365-1.71769639-9.2813492-.24001016-5.2706349-.2909034-6.8515873-.2909034-20.1978175 0-13.3464286.05089324-14.9273809.2909034-20.1980159.22198958-4.8734127 1.03449919-7.5200396 1.71769639-9.2813492.9049888-2.3331349 1.9862226-3.9982142 3.731841-5.7472222 1.7456184-1.7490079 3.4074709-2.8323413 5.7360842-3.7390873 1.7578962-.6845238 4.399394-1.4986111 9.2633621-1.72123015 5.2604205-.24027777 6.838309-.29126984 20.1588724-.29126984z" mask="url(#a)"/><path d="m49.8874565 66.6771825c-9.1841508 0-16.6292181-7.4597222-16.6292181-16.6613095 0-9.2019841 7.4450673-16.6615079 16.6292181-16.6615079 9.1837548 0 16.6290202 7.4595238 16.6290202 16.6615079 0 9.2015873-7.4452654 16.6613095-16.6290202 16.6613095zm0-42.3289682c-14.1485192 0-25.6179152 11.4916667-25.6179152 25.6676587 0 14.1757937 11.469396 25.6674603 25.6179152 25.6674603 14.1483212 0 25.6177172-11.4916666 25.6177172-25.6674603 0-14.175992-11.469396-25.6676587-25.6177172-25.6676587z"/><path d="m82.5038856 23.334127c0 3.3126984-2.6803114 5.9980159-5.9865899 5.9980159-3.3060804 0-5.9863918-2.6853175-5.9863918-5.9980159s2.6803114-5.9980159 5.9863918-5.9980159c3.3062785 0 5.9865899 2.6853175 5.9865899 5.9980159"/></g></svg>