<svg id="圖層_1" data-name="圖層 1" xmlns="http://www.w3.org/2000/svg" xmlns:xlink="http://www.w3.org/1999/xlink" viewBox="0 0 50 50"><defs><style>.cls-1{fill:url(#未命名漸層_3);}.cls-2{fill:#fff;}</style><linearGradient id="未命名漸層_3" x1="320.98" y1="-345.52" x2="261.48" y2="-405.02" gradientTransform="matrix(1, 0, 0, -1, -272.5, -344)" gradientUnits="userSpaceOnUse"><stop offset="0" stop-color="#fbe18a"/><stop offset="0.21" stop-color="#fcbb45"/><stop offset="0.38" stop-color="#f75274"/><stop offset="0.52" stop-color="#d53692"/><stop offset="0.74" stop-color="#8f39ce"/><stop offset="1" stop-color="#5b4fe9"/></linearGradient></defs><path class="cls-1" d="M48,36V14A12,12,0,0,0,36,2H14A12,12,0,0,0,2,14V36A12,12,0,0,0,14,48H36A12,12,0,0,0,48,36Z"/><path class="cls-2" d="M32.14,16.33a1.52,1.52,0,0,0-.87.27,1.56,1.56,0,0,0-.67,1.61,1.56,1.56,0,0,0,1.24,1.24,1.58,1.58,0,0,0,1.61-.67,1.6,1.6,0,0,0,.27-.88,1.59,1.59,0,0,0-1.58-1.57Z"/><path class="cls-2" d="M25.11,18.36a6.66,6.66,0,1,0,4.69,1.95A6.65,6.65,0,0,0,25.11,18.36Zm0,10.9a4.27,4.27,0,0,1-3.95-2.62,4.23,4.23,0,0,1-.25-2.46,4.24,4.24,0,0,1,3.35-3.36,4.26,4.26,0,1,1,.85,8.44Z"/><path class="cls-2" d="M30.38,38.5H19.62a8.13,8.13,0,0,1-8.1-8.1V19.62a8.13,8.13,0,0,1,8.1-8.1H30.38a8.13,8.13,0,0,1,8.1,8.1V30.4a8.13,8.13,0,0,1-8.1,8.1ZM19.62,14.07a5.57,5.57,0,0,0-5.57,5.55V30.4A5.58,5.58,0,0,0,19.62,36H30.38A5.58,5.58,0,0,0,36,30.4V19.62a5.57,5.57,0,0,0-5.57-5.55Z"/></svg>