<?xml version="1.0" encoding="utf-8"?>
<!-- Generator: Adobe Illustrator 25.2.1, SVG Export Plug-In . SVG Version: 6.00 Build 0)  -->
<svg version="1.1" id="圖層_1" xmlns="http://www.w3.org/2000/svg" xmlns:xlink="http://www.w3.org/1999/xlink" x="0px" y="0px"
	 viewBox="0 0 40 40" style="enable-background:new 0 0 40 40;" xml:space="preserve">
<style type="text/css">
	.st0{fill:none;}
	.st1{fill:#FFFFFF;}
</style>
<rect x="9.9" y="6.8" class="st0" width="23.5" height="23.5"/>
<g id="圖層_2_1_">
	<g id="圖層_1-2">
		<path class="st1" d="M20,0C9,0,0,8.9,0,20s8.9,20,20,20c4.9,0,9.7-1.8,13.4-5.1l0,0l0,0c8.2-7.4,9-20,1.6-28.2
			C31.1,2.4,25.7,0,20,0z M29.8,15.5c0,0.2,0,0.4,0,0.6C29.9,23.2,24.1,29,17,29c-0.1,0-0.1,0-0.2,0l0,0c-2.5,0-4.9-0.7-7-2
			c0.4,0,0.7,0,1.1,0c2.1,0,4-0.7,5.6-2c-1.9,0-3.7-1.3-4.2-3.2c0.7,0.1,1.3,0.1,2-0.1c-2.1-0.4-3.6-2.3-3.6-4.5v0
			c0.6,0.3,1.3,0.5,2.1,0.6c-2-1.3-2.6-4-1.4-6.1c2.3,2.8,5.7,4.6,9.4,4.8c-0.6-2.5,1-4.9,3.4-5.5c1.6-0.4,3.2,0.1,4.3,1.3
			c1-0.2,2-0.6,2.9-1.1c-0.3,1.1-1.1,1.9-2,2.5c0.9-0.1,1.8-0.4,2.6-0.7C31.5,14,30.7,14.8,29.8,15.5z"/>
	</g>
</g>
</svg>
