<svg width="16" height="14" viewBox="0 0 16 14" fill="none" xmlns="http://www.w3.org/2000/svg">
<path d="M15.8478 1.55766C15.3329 1.77904 14.7919 1.93362 14.2378 2.01766C14.4978 2.01766 14.8778 1.50767 15.0278 1.31767C15.2698 1.02178 15.4531 0.682361 15.5678 0.317666C15.5678 0.317666 15.5678 0.257664 15.5678 0.237664C15.5556 0.230643 15.5418 0.226945 15.5278 0.226945C15.5137 0.226945 15.4999 0.230643 15.4878 0.237664C14.8813 0.56149 14.2362 0.806799 13.5678 0.967668C13.548 0.979078 13.5256 0.985078 13.5028 0.985078C13.48 0.985078 13.4575 0.979078 13.4378 0.967668C13.3897 0.906282 13.3361 0.849376 13.2778 0.797662C12.9983 0.56442 12.6846 0.375548 12.3478 0.237664C11.8985 0.0524991 11.4125 -0.0262158 10.9278 0.0076687C10.4561 0.0382615 9.99615 0.167729 9.57778 0.387666C9.14941 0.608945 8.77283 0.918552 8.47289 1.29605C8.17296 1.67355 7.9565 2.11037 7.83778 2.57767C7.74779 3.0299 7.74779 3.49543 7.83778 3.94766C7.83778 4.02766 7.83777 4.03767 7.76777 4.02767C5.23688 3.76855 2.89392 2.57389 1.19778 0.677667C1.12778 0.597667 1.08778 0.597667 1.01778 0.677667C0.677352 1.30861 0.548972 2.03234 0.65162 2.74187C0.754268 3.4514 1.0825 4.10907 1.58778 4.61766C1.71778 4.73766 1.84777 4.85767 1.98777 4.96767C1.54917 4.93313 1.12135 4.81429 0.727777 4.61766C0.647777 4.61766 0.60778 4.61767 0.59778 4.67767C0.588254 4.80415 0.588254 4.93118 0.59778 5.05766C0.673638 5.64799 0.905393 6.20744 1.26921 6.67848C1.63303 7.14951 2.11578 7.51511 2.66778 7.73766C2.80099 7.80048 2.94237 7.84424 3.08778 7.86766C2.67772 7.94125 2.25783 7.94125 1.84777 7.86766C1.75777 7.86766 1.71778 7.86766 1.75778 7.98766C1.97082 8.54344 2.32247 9.03551 2.77929 9.41707C3.23612 9.79863 3.78294 10.057 4.36778 10.1677C4.48778 10.1677 4.60778 10.1677 4.72778 10.1677C4.84778 10.1677 4.72778 10.1677 4.72778 10.1677C4.21783 10.626 3.60319 10.9522 2.93778 11.1177C2.07018 11.4281 1.14577 11.5475 0.227777 11.4677C0.0877769 11.4677 0.0577778 11.4677 0.0177778 11.4677C-0.0222222 11.4677 0.0177778 11.5277 0.0177778 11.5577C0.198536 11.6805 0.385444 11.7939 0.577775 11.8977C1.15364 12.2017 1.76045 12.443 2.38778 12.6177C4.00459 13.1053 5.72113 13.1597 7.36556 12.7754C9.01 12.391 10.5246 11.5814 11.7578 10.4277C12.6373 9.47776 13.3199 8.36301 13.7662 7.14781C14.2124 5.9326 14.4135 4.64102 14.3578 3.34767C14.3578 3.24767 14.4778 3.18767 14.5578 3.13767C15.0428 2.75768 15.4706 2.30973 15.8278 1.80766C15.8877 1.73835 15.9198 1.64927 15.9178 1.55766C15.9178 1.55766 15.9178 1.52766 15.8478 1.55766Z" fill="#4A4A4A"/>
</svg>
