<svg xmlns="http://www.w3.org/2000/svg" viewBox="0 0 18.53 22.81"><defs><style>.cls-1{fill:#ffcc01;}</style></defs><g id="圖層_2" data-name="圖層 2"><g id="圖層_1-2" data-name="圖層 1"><path class="cls-1" d="M18,22.81H.54A.54.54,0,0,1,0,22.27V.54A.54.54,0,0,1,.54,0H18a.54.54,0,0,1,.55.54V22.27A.54.54,0,0,1,18,22.81ZM1.09,21.72H17.44V1.09H1.09Z"/><path class="cls-1" d="M14.88,4.38H3.65a.54.54,0,1,1,0-1.08H14.88a.54.54,0,0,1,0,1.08Z"/><path class="cls-1" d="M14.88,6.75H3.65a.4.4,0,1,1,0-.79H14.88a.4.4,0,1,1,0,.79Z"/><path class="cls-1" d="M14.88,9.27H3.65a.4.4,0,1,1,0-.79H14.88a.4.4,0,1,1,0,.79Z"/><path class="cls-1" d="M14.88,11.79H3.65a.4.4,0,0,1-.4-.4.39.39,0,0,1,.4-.39H14.88a.39.39,0,0,1,.4.39A.4.4,0,0,1,14.88,11.79Z"/><path class="cls-1" d="M14.88,14.31H3.65a.4.4,0,1,1,0-.8H14.88a.4.4,0,0,1,0,.8Z"/><path class="cls-1" d="M14.88,16.82H3.65a.39.39,0,0,1-.4-.39.4.4,0,0,1,.4-.4H14.88a.4.4,0,0,1,.4.4A.39.39,0,0,1,14.88,16.82Z"/><path class="cls-1" d="M14.88,19.34H3.65a.4.4,0,1,1,0-.79H14.88a.4.4,0,1,1,0,.79Z"/></g></g></svg>