<svg xmlns="http://www.w3.org/2000/svg" viewBox="0 0 25.4 18.38"><defs><style>.cls-1{fill:#ffcc01;}</style></defs><g id="圖層_2" data-name="圖層 2"><g id="圖層_1-2" data-name="圖層 1"><path class="cls-1" d="M22.63,1.1a1.66,1.66,0,0,1,1.66,1.66V15.63a1.65,1.65,0,0,1-1.66,1.65H2.76A1.66,1.66,0,0,1,1.1,15.63V2.76A1.66,1.66,0,0,1,2.76,1.1Zm0-1.1H2.76A2.77,2.77,0,0,0,0,2.76V15.63a2.76,2.76,0,0,0,2.76,2.75H22.63a2.76,2.76,0,0,0,2.77-2.75V2.76A2.77,2.77,0,0,0,22.63,0Z"/><path class="cls-1" d="M12.7,12.05a.59.59,0,0,1-.37-.14L2.58,3.29a.55.55,0,0,1-.05-.78.56.56,0,0,1,.78,0l9.39,8.29,9.39-8.29a.56.56,0,0,1,.78,0,.55.55,0,0,1-.05.78l-9.76,8.62A.54.54,0,0,1,12.7,12.05Z"/></g></g></svg>