<svg xmlns="http://www.w3.org/2000/svg" viewBox="0 0 21.2 21.13"><defs><style>.cls-1{fill:#ffcc01;}</style></defs><g id="圖層_2" data-name="圖層 2"><g id="圖層_1-2" data-name="圖層 1"><path class="cls-1" d="M10.6,0A10.59,10.59,0,0,0,.81,6.52,10.53,10.53,0,0,0,3.1,18a10.62,10.62,0,0,0,16.32-1.61A10.58,10.58,0,0,0,10.6,0Zm0,19.37a8.8,8.8,0,0,1-8.16-5.44A8.8,8.8,0,0,1,4.35,4.34a8.82,8.82,0,1,1,6.25,15Z"/><path class="cls-1" d="M11.23,4.46a3.59,3.59,0,0,0-1.53.06A3.55,3.55,0,0,0,7.4,6.43a3.52,3.52,0,0,0-.33,1.49.88.88,0,0,0,.26.63.89.89,0,0,0,1.24,0,.88.88,0,0,0,.26-.63A1.74,1.74,0,0,1,9,7.18a1.75,1.75,0,0,1,1.16-1,1.77,1.77,0,0,1,2,2.55,1.88,1.88,0,0,1-.88.79A2.54,2.54,0,0,0,9.72,12v.37A.9.9,0,0,0,10,13a.92.92,0,0,0,.63.26.9.9,0,0,0,.62-.26.87.87,0,0,0,.26-.62V12a.93.93,0,0,1,.12-.46.78.78,0,0,1,.35-.32,3.51,3.51,0,0,0,1.24-5.65A3.5,3.5,0,0,0,11.23,4.46Z"/><path class="cls-1" d="M10.6,16.73a.88.88,0,1,0-.88-.88A.88.88,0,0,0,10.6,16.73Z"/></g></g></svg>