<svg xmlns="http://www.w3.org/2000/svg" viewBox="0 0 21.2 19.21"><defs><style>.cls-1{fill:#ffcc01;}</style></defs><g id="圖層_2" data-name="圖層 2"><g id="圖層_1-2" data-name="圖層 1"><path class="cls-1" d="M19.66,3.69H12.57l3.7-2.58a.61.61,0,0,0,.25-.39.64.64,0,0,0-.11-.46A.61.61,0,0,0,16,0a.59.59,0,0,0-.45.09l-5,3.45L5.65.1A.59.59,0,0,0,5.2,0a.61.61,0,0,0-.39.25A.64.64,0,0,0,4.7.72.61.61,0,0,0,5,1.11L8.64,3.69H1.54A1.54,1.54,0,0,0,0,5.23v11a1.54,1.54,0,0,0,1.54,1.54H2.71v.86a.61.61,0,0,0,.62.62A.62.62,0,0,0,3.76,19a.6.6,0,0,0,.18-.44v-.86H17.5v.86a.65.65,0,0,0,.18.44.63.63,0,0,0,.88,0,.65.65,0,0,0,.18-.44v-.86h.92a1.54,1.54,0,0,0,1.54-1.54v-11a1.54,1.54,0,0,0-1.54-1.54ZM20,16.19a.31.31,0,0,1-.31.31H1.54a.31.31,0,0,1-.22-.09.36.36,0,0,1-.09-.22v-11A.36.36,0,0,1,1.32,5a.31.31,0,0,1,.22-.09H19.66a.31.31,0,0,1,.31.31Z"/></g></g></svg>