<svg xmlns="http://www.w3.org/2000/svg" viewBox="0 0 22 21.95"><defs><style>.cls-1{fill:#ffcc01;}</style></defs><g id="圖層_2" data-name="圖層 2"><g id="圖層_1-2" data-name="圖層 1"><path class="cls-1" d="M.92,0A1,1,0,0,0,0,1V19a2.87,2.87,0,0,0,2.5,3H19.29A2.84,2.84,0,0,0,22,19V6.49a.45.45,0,0,0-.14-.32A.46.46,0,0,0,21.54,6h-4.3V1a.94.94,0,0,0-.91-1Zm0,.92H16.33s0,0,0,0V19a3.06,3.06,0,0,0,.75,2H2.72a1.91,1.91,0,0,1-1.8-2V1s0,0,0,0ZM17.24,7h3.84V19a1.91,1.91,0,0,1-1.79,2H19a1.91,1.91,0,0,1-1.8-2Z"/><path class="cls-1" d="M2.87,16.77a.47.47,0,0,0-.33.14.46.46,0,0,0,0,.64.47.47,0,0,0,.33.14H14.35a.46.46,0,0,0,0-.92Z"/><path class="cls-1" d="M10.81,12.53a.46.46,0,0,0,0,.92h3.54a.46.46,0,0,0,0-.92Z"/><path class="cls-1" d="M10.77,8.29a.46.46,0,0,0-.32.15.45.45,0,0,0-.12.33.48.48,0,0,0,.15.32.5.5,0,0,0,.33.12h3.54a.46.46,0,0,0,0-.92H10.77Z"/><path class="cls-1" d="M2.87,4.05a.51.51,0,0,0-.33.13.49.49,0,0,0-.13.33.48.48,0,0,0,.13.32A.51.51,0,0,0,2.87,5H14.35a.46.46,0,0,0,.32-.13.45.45,0,0,0,.14-.32.45.45,0,0,0-.14-.33.46.46,0,0,0-.32-.13Z"/><path class="cls-1" d="M3.49,8.06A.93.93,0,0,0,2.57,9v3.66a.93.93,0,0,0,.92.91H7.16a.92.92,0,0,0,.91-.91V9a.92.92,0,0,0-.91-.92Zm0,.92H7.16v3.66H3.49Z"/></g></g></svg>