<svg xmlns="http://www.w3.org/2000/svg" viewBox="0 0 23.13 23.05"><defs><style>.cls-1{fill:#ffcc01;fill-rule:evenodd;}</style></defs><g id="圖層_2" data-name="圖層 2"><g id="圖層_1-2" data-name="圖層 1"><path class="cls-1" d="M1.37,18.49a.59.59,0,0,1,0-.88l4-3.24a.59.59,0,0,1,.8,0L8,16.21a1.79,1.79,0,0,0,2.09.31,15.67,15.67,0,0,0,3.71-2.68,16.91,16.91,0,0,0,2.74-3.78A1.75,1.75,0,0,0,16.23,8l-1.8-1.79a.61.61,0,0,1,0-.8l3.25-4a.6.6,0,0,1,.89,0l2.2,2.2a3.93,3.93,0,0,1,.9,4.34,25.36,25.36,0,0,1-5.29,8.25,26.94,26.94,0,0,1-8.4,5.39,4,4,0,0,1-4.41-.89Zm-.71-1.8a1.78,1.78,0,0,0-.14,2.64L2.69,21.5a5.16,5.16,0,0,0,5.73,1.12A28,28,0,0,0,17.18,17a26.56,26.56,0,0,0,5.55-8.62,5.13,5.13,0,0,0-1.16-5.65L19.37.52a1.8,1.8,0,0,0-2.65.13l-3.25,4A1.78,1.78,0,0,0,13.59,7L15.38,8.8a.55.55,0,0,1,.1.68A15.53,15.53,0,0,1,12.94,13,14.44,14.44,0,0,1,9.5,15.47a.58.58,0,0,1-.68-.1L7,13.57a1.78,1.78,0,0,0-2.39-.12Z"/></g></g></svg>