<svg width="22" height="37" viewBox="0 0 22 37" fill="none" xmlns="http://www.w3.org/2000/svg">
<g id="Group 24 Copy">
<g id="Combined Shape" filter="url(#filter0_d)">
<mask id="path-1-inside-1" fill="white">
<path fill-rule="evenodd" clip-rule="evenodd" d="M13.8335 17.2933V5.563C13.8335 4.02476 12.5637 2.755 11.0002 2.755C9.43678 2.755 8.16698 4.02476 8.16698 5.563V17.2933C8.16698 18.8315 9.43679 20.1013 11.0002 20.1013C12.5637 20.1013 13.8335 18.8315 13.8335 17.2933ZM11.0002 1C8.48015 1 6.41198 3.04292 6.41198 5.563V17.2933C6.41198 19.8133 8.48015 21.8563 11.0002 21.8563C13.5203 21.8563 15.5885 19.8133 15.5885 17.2933V5.563C15.5885 3.04292 13.5203 1 11.0002 1ZM10.245 24H9.99999V25.755V31.245V32H7.25494H5.49994V32.245V33.755V34H7.25494H14.745H16.5V33.755V32.245V32H14.745H12V31.245V25.755V24H11.755H10.245Z"/>
</mask>
<path d="M9.99999 24V22.245H8.24499V24H9.99999ZM9.99999 32V33.755H11.755V32H9.99999ZM5.49994 32V30.245H3.74494V32H5.49994ZM5.49994 34H3.74494V35.755H5.49994V34ZM16.5 34V35.755H18.255V34H16.5ZM16.5 32H18.255V30.245H16.5V32ZM12 32H10.245V33.755H12V32ZM12 24H13.755V22.245H12V24ZM12.0785 5.563V17.2933H15.5885V5.563H12.0785ZM11.0002 4.51C11.6047 4.51 12.0785 5.00424 12.0785 5.563H15.5885C15.5885 3.04528 13.5227 1 11.0002 1V4.51ZM9.92198 5.563C9.92198 5.00424 10.3958 4.51 11.0002 4.51V1C8.47777 1 6.41198 3.04528 6.41198 5.563H9.92198ZM9.92198 17.2933V5.563H6.41198V17.2933H9.92198ZM11.0002 18.3463C10.3958 18.3463 9.92198 17.852 9.92198 17.2933H6.41198C6.41198 19.811 8.47777 21.8563 11.0002 21.8563V18.3463ZM12.0785 17.2933C12.0785 17.852 11.6047 18.3463 11.0002 18.3463V21.8563C13.5227 21.8563 15.5885 19.811 15.5885 17.2933H12.0785ZM8.16698 5.563C8.16698 4.02476 9.43678 2.755 11.0002 2.755V-0.755C7.52352 -0.755 4.65698 2.06109 4.65698 5.563H8.16698ZM8.16698 17.2933V5.563H4.65698V17.2933H8.16698ZM11.0002 20.1013C9.43678 20.1013 8.16698 18.8315 8.16698 17.2933H4.65698C4.65698 20.7952 7.52351 23.6113 11.0002 23.6113V20.1013ZM13.8335 17.2933C13.8335 18.8315 12.5637 20.1013 11.0002 20.1013V23.6113C14.4769 23.6113 17.3435 20.7952 17.3435 17.2933H13.8335ZM13.8335 5.563V17.2933H17.3435V5.563H13.8335ZM11.0002 2.755C12.5637 2.755 13.8335 4.02476 13.8335 5.563H17.3435C17.3435 2.06109 14.4769 -0.755 11.0002 -0.755V2.755ZM9.99999 25.755H10.245V22.245H9.99999V25.755ZM11.755 25.755V24H8.24499V25.755H11.755ZM11.755 31.245V25.755H8.24499V31.245H11.755ZM11.755 32V31.245H8.24499V32H11.755ZM9.99999 30.245H7.25494V33.755H9.99999V30.245ZM7.25494 30.245H5.49994V33.755H7.25494V30.245ZM3.74494 32V32.245H7.25494V32H3.74494ZM3.74494 32.245V33.755H7.25494V32.245H3.74494ZM3.74494 33.755V34H7.25494V33.755H3.74494ZM5.49994 35.755H7.25494V32.245H5.49994V35.755ZM7.25494 35.755H14.745V32.245H7.25494V35.755ZM14.745 35.755H16.5V32.245H14.745V35.755ZM18.255 34V33.755H14.745V34H18.255ZM18.255 33.755V32.245H14.745V33.755H18.255ZM18.255 32.245V32H14.745V32.245H18.255ZM16.5 30.245H14.745V33.755H16.5V30.245ZM14.745 30.245H12V33.755H14.745V30.245ZM10.245 31.245V32H13.755V31.245H10.245ZM10.245 25.755V31.245H13.755V25.755H10.245ZM10.245 24V25.755H13.755V24H10.245ZM11.755 25.755H12V22.245H11.755V25.755ZM10.245 25.755H11.755V22.245H10.245V25.755Z" fill="white" mask="url(#path-1-inside-1)"/>
</g>
<g id="Combined Shape_2" filter="url(#filter1_d)">
<path fill-rule="evenodd" clip-rule="evenodd" d="M2 17.8589V22.2038C2 24.6995 4.05422 26.7227 6.58824 26.7227H15.4118C17.9458 26.7227 20 24.6995 20 22.2038V17.8589H18.2354V22.2038C18.2354 23.7396 16.9713 24.9847 15.4119 24.9847H6.58831C5.02891 24.9847 3.76477 23.7396 3.76477 22.2038V17.8589H2Z" fill="white"/>
</g>
</g>
<defs>
<filter id="filter0_d" x="3.49994" y="0" width="15" height="37" filterUnits="userSpaceOnUse" color-interpolation-filters="sRGB">
<feFlood flood-opacity="0" result="BackgroundImageFix"/>
<feColorMatrix in="SourceAlpha" type="matrix" values="0 0 0 0 0 0 0 0 0 0 0 0 0 0 0 0 0 0 127 0"/>
<feOffset dy="1"/>
<feGaussianBlur stdDeviation="1"/>
<feColorMatrix type="matrix" values="0 0 0 0 0 0 0 0 0 0 0 0 0 0 0 0 0 0 0.5 0"/>
<feBlend mode="normal" in2="BackgroundImageFix" result="effect1_dropShadow"/>
<feBlend mode="normal" in="SourceGraphic" in2="effect1_dropShadow" result="shape"/>
</filter>
<filter id="filter1_d" x="0" y="16.8589" width="22" height="12.8638" filterUnits="userSpaceOnUse" color-interpolation-filters="sRGB">
<feFlood flood-opacity="0" result="BackgroundImageFix"/>
<feColorMatrix in="SourceAlpha" type="matrix" values="0 0 0 0 0 0 0 0 0 0 0 0 0 0 0 0 0 0 127 0"/>
<feOffset dy="1"/>
<feGaussianBlur stdDeviation="1"/>
<feColorMatrix type="matrix" values="0 0 0 0 0 0 0 0 0 0 0 0 0 0 0 0 0 0 0.5 0"/>
<feBlend mode="normal" in2="BackgroundImageFix" result="effect1_dropShadow"/>
<feBlend mode="normal" in="SourceGraphic" in2="effect1_dropShadow" result="shape"/>
</filter>
</defs>
</svg>
