<svg height="100" viewBox="0 0 100 100" width="100" xmlns="http://www.w3.org/2000/svg"><path d="m94.2996525 0h-88.79310345c-3.04118306 0-5.50654905 2.4701531-5.50654905 5.51724138v88.96551722c0 3.0470883 2.46536599 5.5172414 5.50654905 5.5172414h47.83814485v-38.6724138h-12.9920141v-15.137931h12.9920141v-11.1379311c0-12.9137931 7.8812484-19.9482758 19.3761695-19.9482758 3.87364-.0084641 7.7450436.1872085 11.5981689.5862069v13.5h-7.9156642c-6.2636996 0-7.4854651 2.9655172-7.4854651 7.3448276v9.637931h14.9709302l-1.9445001 15.137931h-13.11247v38.6896552h25.4677894c3.0411831 0 5.5065491-2.4701531 5.5065491-5.5172414v-88.96551722c0-3.04708828-2.465366-5.51724138-5.5065491-5.51724138z" fill="#fff" fill-rule="evenodd"/></svg>