<svg xmlns="http://www.w3.org/2000/svg" xmlns:xlink="http://www.w3.org/1999/xlink" viewBox="0 0 40 40"><defs><style>.cls-1{fill:none;}.cls-2{fill:#c1c2c2;}.cls-3{clip-path:url(#clip-path);}.cls-4{fill:#fff;}</style><clipPath id="clip-path"><rect class="cls-1" x="12" y="11" width="16" height="21"/></clipPath></defs><g id="圖層_2" data-name="圖層 2"><g id="圖層_1-2" data-name="圖層 1"><circle class="cls-2" cx="20" cy="20" r="20"/><g class="cls-3"><path class="cls-4" d="M25.63,11H14.37a2.32,2.32,0,0,0-1.67.73,2.54,2.54,0,0,0-.7,1.76V25.31a2.54,2.54,0,0,0,.7,1.76,2.32,2.32,0,0,0,1.67.73H25.63a2.32,2.32,0,0,0,1.67-.73,2.54,2.54,0,0,0,.7-1.76V13.49a2.54,2.54,0,0,0-.7-1.76A2.32,2.32,0,0,0,25.63,11Zm1,14.31a1.09,1.09,0,0,1-.31.77,1,1,0,0,1-.73.32H14.37a1,1,0,0,1-.73-.32,1.09,1.09,0,0,1-.31-.77V13.49a1.09,1.09,0,0,1,.31-.77,1,1,0,0,1,.73-.32H25.63a1,1,0,0,1,.73.32,1.09,1.09,0,0,1,.31.77Z"/><path class="cls-4" d="M20,15.2a3.88,3.88,0,0,0-2.22.71,4.23,4.23,0,0,0-1.48,1.88,4.38,4.38,0,0,0-.22,2.43,4.25,4.25,0,0,0,1.09,2.15,3.91,3.91,0,0,0,2,1.15,3.82,3.82,0,0,0,2.31-.24,4.09,4.09,0,0,0,1.8-1.55,4.37,4.37,0,0,0-.5-5.3A3.9,3.9,0,0,0,20,15.2Zm0,7a2.55,2.55,0,0,1-1.48-.47,2.78,2.78,0,0,1-1-1.26,2.89,2.89,0,0,1-.16-1.62,2.92,2.92,0,0,1,.73-1.43,2.69,2.69,0,0,1,1.37-.77,2.62,2.62,0,0,1,1.54.16,2.78,2.78,0,0,1,1.2,1,3,3,0,0,1,.45,1.56,2.89,2.89,0,0,1-.78,2A2.59,2.59,0,0,1,20,22.2Z"/><path class="cls-4" d="M24.33,15.9a1.05,1.05,0,1,0-1-1.05A1,1,0,0,0,24.33,15.9Z"/></g></g></g></svg>