<svg height="38" viewBox="0 0 200 38" width="200" xmlns="http://www.w3.org/2000/svg"><g fill="#fff" fill-rule="evenodd"><ellipse cx="116.874237" cy="18.710167" rx="2.092796" ry="2.1207"/><path d="m127.340659 20.6106309-1.379731.3612861c.395093 1.3416253.648848 2.7218812.757021 4.1176719l1.465201-.3612861c-.152897-1.3962737-.434968-2.774894-.842491-4.1176719z"/><path d="m132.510379 24.6936589c.356532-1.0170451.7326-2.556223 1.111111-3.8677411l-1.555556-.4083028c-.19677 1.3160151-.486484 2.6160247-.866911 3.8900122z"/><path d="m140.625153 13.9936508h-2.197803c-.201682-.8442954-.494876-1.6634037-.874236-2.4423932h-.866911l-.859585.2474563c.299592.716181.558861 1.4490033.776557 2.1949369h-3.137974v1.6505332h12.078145v-1.6505332h-3.094018c.307693-.6087424.681319-1.4426699.993895-2.1207l-1.101343-.3216932h-.840048c-.228815.836088-.521938 1.6527192-.876679 2.4423932z"/><path d="m141.501832 11.5512576h.840048l-.786324-.2301343c-.014652.0618641-.031746.1459992-.053724.2301343z"/><path d="m137.435897 11.3334961-.752136.215287h.866911c-.039072-.0742369-.065935-.1459992-.114775-.215287z"/><path d="m133.821734 25.0104029c-1.067155.2251852-2.13431.4305739-3.174603.633488v-6.062678h3.023199v-1.8089052h-3.023199v-2.058836h2.334554v-1.6282621l.2442.2474563 1.023199-1.6975499c-.844933-.8586732-2.26862-1.900464-3.758242-2.78140823.156289-.29447293.310135-.58894587.466423-.90568986l-1.577534-.70030118c-1.070941 2.12511867-2.597925 3.98024057-4.468864 5.42919007.327092.697715.600593 1.4199544.818071 2.160293.334554-.2722018.644688-.5666748.976801-.8809442v.7572161h2.13431v2.058836h-3.223443v1.8089052h3.223443v6.4016931c-1.311355.2474562-2.512821.4528449-3.492064.6112169l.422467 1.9227351c2.290598-.475116 5.335775-1.108604 8.205128-1.7321938zm-6.15873-11.0835653c.697276-.7999409 1.336319-1.6501259 1.912088-2.5438502 1.157118.744415 2.243581 1.5960148 3.245421 2.5438502z" fill-rule="nonzero"/><path d="m137.435897 11.3334961c.039072.0668132.075703.1410501.114775.215287h3.95116c.021978-.0841352.041514-.1608466.053724-.2301343l.786324.2301343h2.776557v-1.62578758h-4.395604c-.277096-.59823813-.612503-1.16691437-1.001221-1.69754985l-1.777778.45284493c.200244.38355718.444444.81413105.666667 1.23728124h-4.544567v1.62826206h2.617827z"/><path d="m144.095238 26.8193081c-.065934.2722019-.178266.4305739-.288156.475116-.153428.0690205-.32076.1003897-.488401.0915588h-.688644c-.149303.0097402-.297656-.0302323-.422467-.1138299-.087912-.0668132-.112332-.2722018-.112332-.5889458v-3.4643875h2.471307v-6.555116h-9.921856v6.5600651h1.912088c-.244201 2.4869353-1.023199 3.642556-4.446887 4.3428572.462356.4757855.831876 1.0357769 1.089133 1.6505331 3.980464-1.0170451 5.003663-2.7368661 5.291819-5.9933903h1.680098v3.325812c0 1.289247.13431 1.6975498.510379 2.0142938.376068.316744.976801.475116 1.465201.475116h1.333333c.415641.0060748.829048-.0626281 1.221002-.2029141.359439-.138967.642986-.4271952.778998-.79186.156289-.3612861.244201-1.289247.310135-2.1949369-.597764-.1877676-1.15588-.486489-1.64591-.8809442.017658.6174312.001353 1.2353798-.04884 1.8509727zm-7.69475-8.7995442h6.349207v1.2372813h-6.349207zm0 3.8454701v-1.3115181h6.349207v1.3115181z" fill-rule="nonzero"/><path d="m156.124542 22.1151648-1.379731.769589c.690912 1.1156229 1.288832 2.2876759 1.787546 3.5039804l1.445665-.8809442c-.50387-1.1910575-1.12483-2.3276673-1.85348-3.3926252z"/><path d="m147.428571 26.3441921c.498494.2931246.974412.6240086 1.423688.989825.929039-1.416734 1.683526-2.9433336 2.246642-4.5457713l-1.623932-.4949125c-.459278 1.454457-1.150563 2.8228595-2.046398 4.0508588z"/><path d="m160.927961 14.0901587v-2.9991697l6.493284-1.26202685-1.623931-1.53917786-6.803419 1.28429792v7.00548639c0 4.060757-.156288 8.5694098-1.912088 11.1924461.581504.3338967 1.112755.7505641 1.577534 1.2372812 1.978022-2.872967 2.26862-8.0819211 2.26862-11.3384453v-1.6356858"/><path d="m147.919414 9.89825h9.782662v1.742092h-9.782662z"/><g fill-rule="nonzero"><path d="m185.606838 24.5352869h-1.821734v-5.6543752h1.489621v-1.5169068h-10.896215v1.5169068h1.5116v5.6543752h-2.019536v1.5144323h8.058608v2.4423931h1.868132v-2.4423931h1.824176zm-3.689866 0h-4.202686v-1.0640618h4.202686zm0-2.3310378h-4.202686v-1.0393163h4.202686zm0-2.2840212h-4.202686v-1.0393162h4.202686z"/><path d="m180.693529 8.33185185v7.21582415h6.380952v11.2963777c0 .294473-.087912.3835572-.37851.4083028-.290599.0247457-1.201466.0222711-2.068376-.022271.289675.5851493.492121 1.2105919.600732 1.8559218 1.40171 0 2.378511-.0445421 3.045177-.3612861.622711-.316744.822955-.8364021.822955-1.8781929v-18.51467645zm6.380952 5.74593405h-4.412698v-1.425348h4.395604zm0-2.850696h-4.412698v-1.447619h4.395604z"/><path d="m178.981685 8.33185185h-8.249084v20.78632475h2.02442v-13.5705006h6.227106zm-1.936508 5.74345955h-4.290598v-1.4228735h4.290598zm0-2.850696h-4.290598v-1.4451445h4.290598z"/></g><path d="m150.700855 11.5017664-1.614164.5642002 1.155067 2.4869353 1.655678-.5963695z"/><path d="m158.058608 14.3301913v1.764363h-4.092796v2.1281238h3.78022v1.7891086h-3.78022v8.9603908h-2v-8.9603908h-4.26862v-1.7891086h4.26862v-2.1281238h-4.40293v-1.764363z"/><path d="m154.913309 11.4126821-1.614164 3.2342532 1.775336.0445421 1.570208-2.6774766z"/><path d="m152.056166 9.8982499c-.222222-.43057387-.466422-.85867318-.666667-1.23728124l1.777778-.45284493c.388718.53063549.724126 1.09931173 1.001221 1.69754986z"/><path d="m159.992674 14.057989h7.826618v1.935108h-7.826618z"/><path d="m163.472527 15.436321h2.078144v13.577924h-2.078144z"/><path d="m0 0v14.4811396h2.74481074v-11.7046805h194.39072026v11.7046805h2.742369v-14.4811396z"/><path d="m197.135531 34.6438746h-194.39072026v-11.7046805h-2.74481074v14.4811396h199.8779v-14.4811396h-2.742369z"/><path d="m48.046398 10.1828246h-8.7155067v17.0571591h3.6630037v-13.449247s1.4798535-.0618641 3.7948718-.0618641c2.4420024 0 3.6410256 1.6579569 3.6410256 4.157265v9.3538461h3.6630037v-10.2917053c.026862-3.9716728-2.0659341-6.7233863-6.0463981-6.7654538z"/><path d="m63.7362637 10.0343508c-2.3752543 0-4.3500203.8438258-5.9242979 2.5314774-1.5629198 1.6419629-2.4176905 3.8461057-2.3760684 6.1270167 0 2.4745625.8327229 4.5630932 2.4688645 6.2210501s3.7338217 2.4745625 6.1709402 2.4745625c2.9621489 0 5.6459096-1.4377208 7.035409-4.0335369l-2.6544566-1.7816849c-.8937729 1.7198209-2.3760684 2.595816-4.4420025 2.595816-1.2195276.0159563-2.4032458-.4175878-3.3308913-1.2199593-.9233567-.7701669-1.4647674-1.9135977-1.4798535-3.1253724h12.4957265c.0420238-.3845448.0624068-.7712023.0610501-1.1580953 0-2.595816-.7106227-4.6571265-2.1294262-6.2532193-1.4188034-1.5960928-3.3870574-2.3780546-5.8949939-2.3780546zm-4.3394383 6.9733171c.2706327-2.2045824 2.1478358-3.8413373 4.3394383-3.783606 2.3443224 0 4.1660562 1.4377208 4.2881563 3.783606z" fill-rule="nonzero"/><path d="m93.025641 10.1828246-3.4554334 12.0140008h-.0634921l-3.7631258-12.0140008h-3.7020757l-3.7338217 11.9818315h-.029304l-3.4554335-11.9818315h-3.8583638l5.2771672 17.0398372h3.7631258l3.8266178-11.8729508h.0610501l3.7948718 11.8729508h3.8266178l5.2747253-17.0398372z"/><path d="m103.355311 16.9136345c-2.129426-.4676923-3.054945-1.0318925-3.054945-2.1256492 0-.9056898 1.172161-1.6257875 2.315019-1.6257875 1.572649 0 2.715506.7423687 3.455433 2.2518519l2.842491-1.6282622c-1.140415-2.5017826-3.208791-3.7514367-6.17094-3.7514367-1.521222-.0318772-3.0054798.4767675-4.1953605 1.4377208-1.1500614.864418-1.8168594 2.2388406-1.7899877 3.6895727-.0180792 1.1271663.4010532 2.2165131 1.1672771 3.0338136.8937729.9700285 2.2832721 1.6257875 4.1025641 2.001921 2.251526.4676923 3.394383 1.2199593 3.394383 2.1875132 0 1.125926-1.203907 1.8435491-2.590964 1.8435491-1.758242 0-3.0549452-.9056899-3.9487181-2.6898494l-2.8693529 1.6257875c1.2649573 2.7814082 3.5482296 4.1894343 6.818071 4.1894343 1.851038 0 3.362637-.4676923 4.505494-1.4377208 1.119081-.9110164 1.75701-2.297148 1.726496-3.7514367 0-2.5933415-1.973138-4.4071958-5.70696-5.2510216z"/><path d="m30.0927961 10.1679772c-2.4420024 0-4.041514.8759951-5.7387057 2.7517135-1.0183151-1.8435491-2.7155068-2.7517135-5.0915751-2.7517135h-8.4810745v17.0744811h3.6630036v-9.2895075c0-2.5314775 1.3894994-4.2512984 3.6092797-4.2512984 2.4420024 0 3.5482295 1.6579569 3.5482295 4.157265v9.3785918h3.6483517v-9.3142532c0-2.5314774 1.3894993-4.2216036 3.6410256-4.2216036 2.4420024 0 3.5164835 1.5936183 3.5164835 4.1275702v9.4033374h3.6630037v-10.3115018c.007326-4.0013675-1.997558-6.753081-5.978022-6.753081z"/></g></svg>