<?xml version="1.0" encoding="utf-8"?>
<!-- Generator: Adobe Illustrator 21.0.0, SVG Export Plug-In . SVG Version: 6.00 Build 0)  -->
<svg version="1.1" id="圖層_1" xmlns="http://www.w3.org/2000/svg" xmlns:xlink="http://www.w3.org/1999/xlink" x="0px" y="0px"
	 viewBox="0 0 239.9 74.3" style="enable-background:new 0 0 239.9 74.3;" xml:space="preserve">
<style type="text/css">
	.st0{fill:#FFFFFF;}
</style>
<title>Mnews_Logo_mobile</title>
<path class="st0" d="M96.1,20.2H78.5v33.9h7.4V27.4c0,0,3-0.1,7.6-0.1c4.9,0,7.3,3.3,7.3,8.3v18.6h7.4V33.7
	C108.3,25.8,104.1,20.3,96.1,20.2z"/>
<path class="st0" d="M127.7,19.9c-4.5-0.1-8.8,1.7-11.9,5c-3.1,3.3-4.8,7.7-4.7,12.2c-0.1,4.6,1.7,9.1,5,12.4
	c3.3,3.3,7.8,5,12.4,4.9c5.8,0.2,11.3-2.9,14.1-8l-5.3-3.5c-1.8,3.4-4.8,5.2-8.9,5.2c-2.5,0-4.8-0.8-6.7-2.4c-1.9-1.5-3-3.8-3-6.2
	h25.1c0.1-0.8,0.1-1.5,0.1-2.3c0-5.1-1.4-9.2-4.3-12.4S132.7,19.9,127.7,19.9z M118.9,33.8c0.5-4.4,4.3-7.6,8.8-7.5
	c4.7,0,8.4,2.9,8.6,7.5H118.9z"/>
<polygon class="st0" points="186.6,20.2 179.6,44.1 179.5,44.1 171.9,20.2 164.5,20.2 156.9,44 156.9,44 149.9,20.2 142.2,20.2 
	152.8,54 160.4,54 168.1,30.5 168.2,30.5 175.8,54 183.5,54 194.1,20.2 "/>
<path class="st0" d="M207.3,33.6c-4.3-0.9-6.1-2-6.1-4.2c0-1.8,2.4-3.2,4.7-3.2c3-0.1,5.8,1.7,7,4.5l5.7-3.2
	c-2.3-5-6.5-7.5-12.4-7.5c-3.1-0.1-6,1-8.4,2.9c-2.3,1.7-3.7,4.4-3.6,7.3c0,2.2,0.8,4.4,2.4,6c1.8,1.9,4.6,3.2,8.3,4
	c4.5,0.9,6.8,2.4,6.8,4.3c0,2.2-2.4,3.7-5.2,3.7c-3.5,0-6.1-1.8-7.9-5.3l-5.8,3.2c2.5,5.5,7.1,8.3,13.7,8.3c3.3,0.2,6.5-0.9,9.1-2.9
	c2.3-1.8,3.5-4.6,3.5-7.5C218.8,38.9,214.9,35.3,207.3,33.6z"/>
<path class="st0" d="M59.9,20.2c-4.9,0-8.1,1.7-11.5,5.5c-2-3.7-5.5-5.5-10.2-5.5H21.1v33.9h7.4V35.7c0-5,2.8-8.4,7.3-8.4
	c4.9,0,7.1,3.3,7.1,8.3v18.6h7.3V35.6c0-5,2.8-8.4,7.3-8.4c4.9,0,7.1,3.2,7.1,8.2v18.7H72V33.6C72,25.6,68,20.2,59.9,20.2z"/>
<polygon class="st0" points="5.5,28.8 5.5,5.5 111.6,5.5 111.6,0 0,0 0,28.8 "/>
<polygon class="st0" points="5.5,45.5 5.5,68.8 111.6,68.8 111.6,74.3 0,74.3 0,45.5 "/>
<polygon class="st0" points="234.4,28.8 234.4,5.5 128.4,5.5 128.4,0 239.9,0 239.9,28.8 "/>
<polygon class="st0" points="234.4,45.5 234.4,68.8 128.4,68.8 128.4,74.3 239.9,74.3 239.9,45.5 "/>
</svg>
