<svg enable-background="new 0 0 239.9 74.3" viewBox="0 0 239.9 74.3" xmlns="http://www.w3.org/2000/svg"><g fill="#fff"><path d="m96.1 20.2h-17.6v33.9h7.4v-26.7s3-.1 7.6-.1c4.9 0 7.3 3.3 7.3 8.3v18.6h7.4v-20.5c.1-7.9-4.1-13.4-12.1-13.5z"/><path d="m127.7 19.9c-4.5-.1-8.8 1.7-11.9 5s-4.8 7.7-4.7 12.2c-.1 4.6 1.7 9.1 5 12.4s7.8 5 12.4 4.9c5.8.2 11.3-2.9 14.1-8l-5.3-3.5c-1.8 3.4-4.8 5.2-8.9 5.2-2.5 0-4.8-.8-6.7-2.4-1.9-1.5-3-3.8-3-6.2h25.1c.1-.8.1-1.5.1-2.3 0-5.1-1.4-9.2-4.3-12.4s-6.9-4.9-11.9-4.9zm-8.8 13.9c.5-4.4 4.3-7.6 8.8-7.5 4.7 0 8.4 2.9 8.6 7.5z"/><path d="m186.6 20.2-7 23.9h-.1l-7.6-23.9h-7.4l-7.6 23.8-7-23.8h-7.7l10.6 33.8h7.6l7.7-23.5h.1l7.6 23.5h7.7l10.6-33.8z"/><path d="m207.3 33.6c-4.3-.9-6.1-2-6.1-4.2 0-1.8 2.4-3.2 4.7-3.2 3-.1 5.8 1.7 7 4.5l5.7-3.2c-2.3-5-6.5-7.5-12.4-7.5-3.1-.1-6 1-8.4 2.9-2.3 1.7-3.7 4.4-3.6 7.3 0 2.2.8 4.4 2.4 6 1.8 1.9 4.6 3.2 8.3 4 4.5.9 6.8 2.4 6.8 4.3 0 2.2-2.4 3.7-5.2 3.7-3.5 0-6.1-1.8-7.9-5.3l-5.8 3.2c2.5 5.5 7.1 8.3 13.7 8.3 3.3.2 6.5-.9 9.1-2.9 2.3-1.8 3.5-4.6 3.5-7.5-.3-5.1-4.2-8.7-11.8-10.4z"/><path d="m59.9 20.2c-4.9 0-8.1 1.7-11.5 5.5-2-3.7-5.5-5.5-10.2-5.5h-17.1v33.9h7.4v-18.4c0-5 2.8-8.4 7.3-8.4 4.9 0 7.1 3.3 7.1 8.3v18.6h7.3v-18.6c0-5 2.8-8.4 7.3-8.4 4.9 0 7.1 3.2 7.1 8.2v18.7h7.4v-20.5c0-8-4-13.4-12.1-13.4z"/><path d="m5.5 28.8v-23.3h106.1v-5.5h-111.6v28.8z"/><path d="m5.5 45.5v23.3h106.1v5.5h-111.6v-28.8z"/><path d="m234.4 28.8v-23.3h-106v-5.5h111.5v28.8z"/><path d="m234.4 45.5v23.3h-106v5.5h111.5v-28.8z"/></g></svg>