<svg id="Layer_1" data-name="Layer 1" xmlns="http://www.w3.org/2000/svg" viewBox="0 0 818.51 151.22"><defs><style>.cls-1{fill:#fff;}</style></defs><title>Mnews_Logo_g</title><circle class="cls-1" cx="478.6" cy="75.61" r="8.57"/><path class="cls-1" d="M521.46,83.29l-5.65,1.46a80.13,80.13,0,0,1,3.1,16.64l6-1.46A90.6,90.6,0,0,0,521.46,83.29Z"/><path class="cls-1" d="M542.63,99.79c1.46-4.11,3-10.33,4.55-15.63l-6.37-1.65a112.43,112.43,0,0,1-3.55,15.72Z"/><path class="cls-1" d="M575.86,56.55h-9a47.62,47.62,0,0,0-3.58-9.87h-3.55l-3.52,1a83.14,83.14,0,0,1,3.18,8.87H546.54v6.67H596V56.55H583.33c1.26-2.46,2.79-5.83,4.07-8.57l-4.51-1.3h-3.44A67.11,67.11,0,0,1,575.86,56.55Z"/><path class="cls-1" d="M579.45,46.68h3.44l-3.22-.93C579.61,46,579.54,46.34,579.45,46.68Z"/><path class="cls-1" d="M562.8,45.8l-3.08.87h3.55C563.11,46.37,563,46.08,562.8,45.8Z"/><path class="cls-1" d="M548,101.07c-4.37.91-8.74,1.74-13,2.56V79.13h12.38V71.82H535V63.5h9.56V56.92l1,1,4.19-6.86c-3.46-3.47-9.29-7.68-15.39-11.24.64-1.19,1.27-2.38,1.91-3.66l-6.46-2.83a64.58,64.58,0,0,1-18.3,21.94A60.71,60.71,0,0,1,514.86,64c1.37-1.1,2.64-2.29,4-3.56V63.5h8.74v8.32H514.4v7.31h13.2V105c-5.37,1-10.29,1.83-14.3,2.47l1.73,7.77c9.38-1.92,21.85-4.48,33.6-7ZM522.78,56.28A89.11,89.11,0,0,0,530.61,46,90.74,90.74,0,0,1,543.9,56.28Z"/><path class="cls-1" d="M562.8,45.8c.16.27.31.57.47.87h16.18c.09-.34.17-.65.22-.93l3.22.93h11.37V40.1h-18a40.08,40.08,0,0,0-4.1-6.86l-7.28,1.83c.82,1.55,1.82,3.29,2.73,5H549v6.58h10.72Z"/><path class="cls-1" d="M590.07,108.38c-.27,1.1-.73,1.74-1.18,1.92a4.37,4.37,0,0,1-2,.37h-2.82a2.81,2.81,0,0,1-1.73-.46c-.36-.27-.46-1.1-.46-2.38v-14H592V67.34H551.37V93.85h7.83c-1,10.05-4.19,14.72-18.21,17.55a21.43,21.43,0,0,1,4.46,6.67c16.3-4.11,20.49-11.06,21.67-24.22H574v13.44c0,5.21.55,6.86,2.09,8.14s4,1.92,6,1.92h5.46a14.39,14.39,0,0,0,5-.82,5.51,5.51,0,0,0,3.19-3.2c.64-1.46,1-5.21,1.27-8.87a20.68,20.68,0,0,1-6.74-3.56A67.2,67.2,0,0,1,590.07,108.38ZM558.56,72.82h26v5h-26Zm0,15.54v-5.3h26v5.3Z"/><path class="cls-1" d="M639.33,89.37l-5.65,3.11A95.76,95.76,0,0,1,641,106.64l5.92-3.56A78,78,0,0,0,639.33,89.37Z"/><path class="cls-1" d="M603.72,106.46a46.84,46.84,0,0,1,5.83,4,84.27,84.27,0,0,0,9.2-18.37l-6.65-2A56.51,56.51,0,0,1,603.72,106.46Z"/><path class="cls-1" d="M659,56.94V44.82l26.59-5.1-6.65-6.22-27.86,5.19V67c0,16.41-.64,34.63-7.83,45.23a28.63,28.63,0,0,1,6.46,5c8.1-11.61,9.29-32.66,9.29-45.82V64.8"/><rect class="cls-1" x="605.73" y="40" width="40.06" height="7.04"/><path class="cls-1" d="M760.06,99.15H752.6V76.3h6.1V70.17H714.08V76.3h6.19V99.15H712v6.12h33v9.87h7.65v-9.87h7.47Zm-15.11,0H727.74v-4.3h17.21Zm0-9.42H727.74v-4.2h17.21Zm0-9.23H727.74V76.3h17.21Z"/><path class="cls-1" d="M739.94,33.67V62.83h26.13v45.65c0,1.19-.36,1.55-1.55,1.65s-4.92.09-8.47-.09a26.76,26.76,0,0,1,2.46,7.5c5.74,0,9.74-.18,12.47-1.46,2.55-1.28,3.37-3.38,3.37-7.59V33.67Zm26.13,23.22H748V51.13h18Zm0-11.52H748V39.52h18Z"/><path class="cls-1" d="M732.93,33.67H699.15v84h8.29V62.83h25.5ZM725,56.88H707.43V51.13H725Zm0-11.52H707.43V39.52H725Z"/><polygon class="cls-1" points="617.12 46.48 610.51 48.76 615.24 58.81 622.02 56.4 617.12 46.48"/><polygon class="cls-1" points="647.25 57.91 647.25 65.04 630.49 65.04 630.49 73.64 645.97 73.64 645.97 80.87 630.49 80.87 630.49 117.08 622.3 117.08 622.3 80.87 604.82 80.87 604.82 73.64 622.3 73.64 622.3 65.04 604.27 65.04 604.27 57.91 647.25 57.91"/><polygon class="cls-1" points="634.37 46.12 627.76 59.19 635.03 59.37 641.46 48.55 634.37 46.12"/><path class="cls-1" d="M622.67,40c-.91-1.74-1.91-3.47-2.73-5l7.28-1.83a40.08,40.08,0,0,1,4.1,6.86Z"/><rect class="cls-1" x="655.17" y="56.81" width="32.05" height="7.82"/><rect class="cls-1" x="669.42" y="62.38" width="8.51" height="54.87"/><polygon class="cls-1" points="0 0 0 58.52 11.24 58.52 11.24 11.22 807.27 11.22 807.27 58.52 818.5 58.52 818.5 0 0 0"/><polygon class="cls-1" points="807.27 140 11.24 140 11.24 92.7 0 92.7 0 151.22 818.5 151.22 818.5 92.7 807.27 92.7 807.27 140"/><path class="cls-1" d="M196.75,41.15H161.06v68.93h15l0-54.35s6.06-.25,15.54-.25c10,0,14.91,6.7,14.91,16.8l0,37.8h15l0-41.59C221.62,52.44,213.05,41.32,196.75,41.15Z"/><path class="cls-1" d="M261,40.55q-14.59,0-24.26,10.23a34.74,34.74,0,0,0-9.73,24.76c0,10,3.41,18.44,10.11,25.14s15.29,10,25.27,10c12.13,0,23.12-5.81,28.81-16.3l-10.87-7.2c-3.66,6.95-9.73,10.49-18.19,10.49a20.6,20.6,0,0,1-13.64-4.93,16.63,16.63,0,0,1-6.06-12.63h51.17a41.19,41.19,0,0,0,.25-4.68c0-10.49-2.91-18.82-8.72-25.27S271.27,40.55,261,40.55ZM243.23,68.73A17.45,17.45,0,0,1,261,53.44c9.6,0,17.06,5.81,17.56,15.29Z"/><polygon class="cls-1" points="380.94 41.15 366.79 89.7 366.53 89.7 351.12 41.15 335.96 41.15 320.67 89.57 320.55 89.57 306.4 41.15 290.6 41.15 312.21 110.01 327.62 110.01 343.29 62.03 343.54 62.03 359.08 110.01 374.75 110.01 396.35 41.15 380.94 41.15"/><path class="cls-1" d="M423.24,68.35c-8.72-1.89-12.51-4.17-12.51-8.59,0-3.66,4.8-6.57,9.48-6.57,6.44,0,11.12,3,14.15,9.1L446,55.71c-4.67-10.11-13.14-15.16-25.27-15.16a26.68,26.68,0,0,0-17.18,5.81,18.14,18.14,0,0,0-7.33,14.91A17.39,17.39,0,0,0,401,73.53c3.66,3.92,9.35,6.57,16.8,8.09,9.22,1.89,13.9,4.93,13.9,8.84,0,4.55-4.93,7.45-10.61,7.45-7.2,0-12.51-3.66-16.17-10.87l-11.75,6.57c5.18,11.24,14.53,16.93,27.92,16.93,7.58,0,13.77-1.89,18.45-5.81a18.93,18.93,0,0,0,7.07-15.16C446.61,79.09,438.53,71.76,423.24,68.35Z"/><path class="cls-1" d="M123.23,41.09c-10,0-16.55,3.54-23.5,11.12-4.17-7.45-11.12-11.12-20.85-11.12H44.15v69h15V72.55c0-10.23,5.69-17.18,14.78-17.18,10,0,14.53,6.7,14.53,16.8v37.9H103.4V72.43c0-10.23,5.69-17.06,14.91-17.06,10,0,14.4,6.44,14.4,16.68v38h15V68.38C147.74,52.21,139.53,41.09,123.23,41.09Z"/></svg>