<?xml version="1.0" encoding="UTF-8"?>
<svg version="1.1" viewBox="0 0 30 25" xmlns="http://www.w3.org/2000/svg">
<title>quote</title>
<g fill="none" fill-rule="evenodd">
<g fill="#014DB8" fill-rule="nonzero">
<path d="m6.7692 24.085c-1.8954 0-3.7923-0.018462-5.6923 0.010769-0.65385 0.0092308-0.92308-0.20308-0.91385-0.88308 0.072308-4.1738-0.16154-8.3538 0.15385-12.523 0.2-2.6246 0.69231-5.1969 2.4246-7.3123 2.0062-2.44 4.7292-3.2938 7.7723-3.3769 0.44923-0.010769 0.66154 0.22308 0.66308 0.65692v3.6923c0 0.35385-0.16923 0.55231-0.53538 0.63077-2.6723 0.57231-3.5 1.4815-3.7015 4.1246-0.06 0.79077 0 1.5892-0.044615 2.3815-0.021538 0.43385 0.16923 0.50308 0.54154 0.49846 1.6923-0.015385 3.3846 0.013846 5.0769-0.018462 0.64462-0.012308 0.92308 0.16615 0.92308 0.86308-0.024615 3.4872-0.024615 6.9718 0 10.454 0 0.60462-0.22615 0.81846-0.81538 0.81231-1.9477-0.018462-3.8938 0-5.8462 0l-0.0061538-0.010769z"/>
<path d="m16.66 16.98c0.016923-2.7892-0.067692-5.5831 0.40769-8.3523 0.71538-4.1538 2.8031-7.1338 7.06-8.26 0.89538-0.23692 1.8154-0.30769 2.7338-0.36308 0.53231-0.035385 0.81846 0.15385 0.80923 0.74-0.018462 1.1785-0.0092307 2.3569 0 3.5385 0 0.38308-0.13538 0.61538-0.54769 0.69538-2.6292 0.53231-3.5092 1.5277-3.7092 4.2215-0.056923 0.76923 0 1.5385-0.043077 2.3077-0.023077 0.44462 0.18462 0.48923 0.54769 0.48615 1.7154-0.013846 3.4323 0.013846 5.1477-0.016923 0.64308-0.012308 0.85385 0.23692 0.8508 0.85692-0.017469 3.4872-0.017469 6.9708 0 10.451 0 0.59846-0.22619 0.81692-0.81542 0.81388-3.8677-0.013365-7.7354-0.013365-11.603 0-0.64308 0-0.84769-0.27388-0.84154-0.88619 0.015385-2.0831 0.0015384-4.1585 0.0030769-6.2323z"/>
</g>
</g>
</svg>
