<svg viewBox="0 0 1024 1024" xmlns="http://www.w3.org/2000/svg"><g fill="#444746"><path d="m586.56 830.84q0 13.25-7.46 22.29t-21.46 13.87l42 50.18h-32.49l-36-45.33h-8.39v45.33h-26.12v-124.18h37.12a91 91 0 0 1 21.24 2.3 50.4 50.4 0 0 1 16.7 7.09 34.23 34.23 0 0 1 10.91 11.85 33.79 33.79 0 0 1 3.95 16.6zm-26.12.56q0-9.51-7.46-13.8t-19.4-4.29h-10.82v38.8h7.83q13.43 0 21.64-5.22t8.21-15.49z"/><path d="m612.67 793h74.62v20.71h-48.5v30h46.21v20.71h-46.21v32.08h49.06v20.71h-75.18z"/><path d="m823.84 917.21h-27.05l-8.79-26.12h-51.09l-8.77 26.12h-27l47.15-124.21h28.35zm-61.38-103.35-18.65 56.52h37.31z"/><path d="m840.44 793h37.5a89.78 89.78 0 0 1 29.75 4.66 67.9 67.9 0 0 1 22.76 13 57.41 57.41 0 0 1 14.55 19.62 62.55 62.55 0 0 1 0 49.62 57.35 57.35 0 0 1 -14.55 19.68 67.81 67.81 0 0 1 -22.76 13 89.71 89.71 0 0 1 -29.75 4.66h-37.5zm38.06 103.5a57.23 57.23 0 0 0 18.28-2.81 41.53 41.53 0 0 0 14.46-8.15 36.68 36.68 0 0 0 9.42-13 46.9 46.9 0 0 0 0-34.85 36.74 36.74 0 0 0 -9.42-13 41.57 41.57 0 0 0 -14.46-8.15 57.23 57.23 0 0 0 -18.28-2.81h-11.94v82.77z"/><path d="m1024 848.18h-4.29q-9.51 0-15.86 3a24.24 24.24 0 0 0 -10.07 8.58v57.46h-25.56v-90.86h24.62v16a25.39 25.39 0 0 1 8.3-12.5q5.69-4.48 15.2-4.48a28.67 28.67 0 0 1 7.65.93z"/><path d="m112.64 198.18v-51.75h199.23v51.75zm14.76 86.25v-46.82h169.71v46.82zm0 88.72v-46.82h169.71v46.82zm12.3-266.15v-46.82h147.57v46.82zm179.55 524.92-9.84-19.72q-5-14.79-9.84-22.18 76.21-17.27 157.42-34.5l19.68 34.48a1383 1383 0 0 1 -157.42 41.92zm-4.92-515.06v-39.43h159.88v-37h61.49v37h164.8v39.43h-164.8v29.57h140.2v34.5h-341.9v-34.5h140.2v-29.57zm7.38 189.76v-98.62h366.49v98.58zm17.22 244v-216.9h332.07v216.87zm34.44-313v37h56.57v-37zm22.13 130.61v29.57h218.91v-29.57zm0 59.15v27.11h218.91v-27.12zm0 59.15v27.11h218.91v-27.12zm78.71-248.9v37h61.49v-37zm218.91 394.3q-64-12.37-164.8-44.36l19.68-37q81.17 19.69 162.34 37zm-54.12-394.32h-61.49v37h61.49z"/><path d="m129.86 415v207h164.8v-207zm118.06 162.22h-68.87v-112.88h68.87z"/></g><path d="m465.92 685.58-230.4 158.72v-158.72h-174.08v-645.12h-61.44v706.56h168.96v235.52l332.8-235.52h522.24v-61.44z" fill="#ddcf21"/><path d="m1024 153.1h-112.64v-112.64h-61.44v112.64h-112.64v61.44h112.64v112.64h61.44v-112.64h112.64z" fill="#444746"/></svg>