<?xml version="1.0" encoding="UTF-8"?>
<svg width="31px" height="32px" viewBox="0 0 31 32" version="1.1" xmlns="http://www.w3.org/2000/svg" xmlns:xlink="http://www.w3.org/1999/xlink">
    <!-- Generator: Sketch 52.6 (67491) - http://www.bohemiancoding.com/sketch -->
    <title>search</title>
    <desc>Created with Sketch.</desc>
    <g id="Welcome" stroke="none" stroke-width="1" fill="none" fill-rule="evenodd">
        <path d="M18.8056157,23.3840749 C14.0454182,26.1032027 7.83250215,25.3949825 3.7205042,21.2829846 C-1.19400438,16.368476 -1.2465056,8.45298449 3.60323945,3.60323945 C8.45298449,-1.2465056 16.368476,-1.19400438 21.2829846,3.7205042 C26.0067683,8.44428795 26.2385967,15.940647 21.9427362,20.8221176 L30.0711327,29.0590608 L27.2384746,31.9295462 L18.8056157,23.3840749 Z M19.4934269,19.4934269 C23.3039408,15.6829129 23.2626899,9.46359813 19.4012903,5.60219853 C15.5398907,1.74079893 9.3205759,1.69954797 5.51006193,5.51006193 C1.69954797,9.3205759 1.74079893,15.5398907 5.60219853,19.4012903 C9.46359813,23.2626899 15.6829129,23.3039408 19.4934269,19.4934269 Z" id="search" fill="#C1C2C2" fill-rule="nonzero"></path>
    </g>
</svg>