<svg xmlns="http://www.w3.org/2000/svg" viewBox="0 0 40 40"><defs><style>.cls-1{fill:#c1c2c2;}</style></defs><g id="圖層_2" data-name="圖層 2"><g id="圖層_1-2" data-name="圖層 1"><path class="cls-1" d="M20,0A20,20,0,1,0,33.28,34.92h0v0A20,20,0,0,0,20,0Zm9.82,15.48c0,.19,0,.39,0,.58A12.86,12.86,0,0,1,16.89,29h0a13,13,0,0,1-7-2A9.82,9.82,0,0,0,11,27a9.15,9.15,0,0,0,5.65-2,4.55,4.55,0,0,1-4.25-3.16,4.44,4.44,0,0,0,2-.08,4.55,4.55,0,0,1-3.65-4.46v-.05a4.64,4.64,0,0,0,2.06.57,4.57,4.57,0,0,1-1.4-6.08,12.89,12.89,0,0,0,9.37,4.75,4.56,4.56,0,0,1,7.76-4.15,9.09,9.09,0,0,0,2.88-1.1,4.59,4.59,0,0,1-2,2.52,9.1,9.1,0,0,0,2.62-.72A9.26,9.26,0,0,1,29.82,15.48Z"/></g></g></svg>