<?xml version="1.0" standalone="no"?>
<!DOCTYPE svg PUBLIC "-//W3C//DTD SVG 20010904//EN"
 "http://www.w3.org/TR/2001/REC-SVG-20010904/DTD/svg10.dtd">
<svg version="1.0" xmlns="http://www.w3.org/2000/svg"
 width="256.000000pt" height="256.000000pt" viewBox="0 0 256.000000 256.000000"
 preserveAspectRatio="xMidYMid meet">
<metadata>
Created by potrace 1.11, written by Peter Selinger 2001-2013
</metadata>
<g transform="translate(0.000000,256.000000) scale(0.100000,-0.100000)"
fill="#000000" stroke="none">
<path d="M0 1280 l0 -1280 1280 0 1280 0 0 1280 0 1280 -1280 0 -1280 0 0
-1280z m1058 635 c34 -8 81 -24 103 -36 50 -25 122 -90 150 -135 l21 -35 68
64 c120 114 266 166 425 154 215 -16 388 -179 467 -439 20 -69 22 -96 26 -465
l3 -393 -130 0 -131 0 0 349 c0 314 -2 355 -19 410 -37 118 -134 212 -255 247
-109 30 -207 4 -279 -75 -89 -99 -97 -144 -97 -578 l0 -353 -130 0 -130 0 0
353 c0 372 -4 406 -49 495 -29 58 -86 113 -146 142 -75 36 -181 35 -257 -3
-91 -45 -162 -139 -188 -249 -5 -24 -10 -198 -10 -390 l0 -348 -130 0 -130 0
0 650 0 650 378 0 c298 0 390 -3 440 -15z"/>
</g>
</svg>
