<?xml version="1.0" standalone="no"?>
<!DOCTYPE svg PUBLIC "-//W3C//DTD SVG 20010904//EN"
 "http://www.w3.org/TR/2001/REC-SVG-20010904/DTD/svg10.dtd">
<svg version="1.0" xmlns="http://www.w3.org/2000/svg"
 width="96.000000pt" height="96.000000pt" viewBox="0 0 96.000000 96.000000"
 preserveAspectRatio="xMidYMid meet">
<metadata>
Created by potrace 1.11, written by Peter Selinger 2001-2013
</metadata>
<g transform="translate(0.000000,96.000000) scale(0.100000,-0.100000)"
fill="#000000" stroke="none">
<path d="M0 480 l0 -480 480 0 480 0 0 480 0 480 -480 0 -480 0 0 -480z m328
117 c14 -11 17 -87 3 -87 -6 0 -11 17 -13 38 -2 29 -7 37 -23 37 -16 0 -21 -8
-23 -37 -4 -51 -22 -49 -22 2 0 33 -3 40 -20 40 -17 0 -20 -7 -20 -40 0 -22
-4 -40 -10 -40 -5 0 -10 22 -10 50 l0 50 63 -2 c34 0 68 -5 75 -11z m110 1
c15 -15 16 -74 2 -83 -6 -3 -10 5 -10 19 0 37 -10 56 -31 56 -15 0 -19 -7 -19
-40 0 -22 -4 -40 -10 -40 -5 0 -10 23 -10 50 0 50 0 50 33 50 18 0 38 -5 45
-12z m100 0 c23 -23 13 -38 -24 -38 -24 0 -34 -4 -31 -12 2 -8 18 -12 38 -11
32 3 33 2 15 -12 -23 -18 -31 -18 -57 -5 -22 12 -26 59 -7 78 7 7 21 12 33 12
12 0 26 -5 33 -12z m45 -20 l14 -33 7 33 c9 38 33 42 42 7 3 -14 10 -25 14
-25 4 0 11 11 14 25 4 14 11 25 16 25 10 0 5 -32 -11 -77 -12 -33 -26 -28 -40
15 l-12 37 -12 -34 c-17 -50 -31 -48 -49 5 -19 56 -19 54 -6 54 5 0 16 -15 23
-32z m193 21 c5 -9 -1 -10 -20 -5 -33 8 -33 -3 1 -30 24 -19 26 -24 14 -38
-17 -21 -45 -20 -62 1 -13 15 -11 16 14 9 16 -4 27 -2 27 4 0 5 -4 10 -9 10
-17 0 -40 30 -35 45 7 18 60 20 70 4z m-435 -141 c29 10 62 4 53 -10 -4 -6 0
-14 7 -19 9 -6 -6 -9 -41 -9 -39 0 -51 -3 -40 -10 10 -6 11 -10 3 -10 -7 0
-13 -9 -13 -20 0 -18 4 -21 28 -20 4 1 6 11 4 23 -2 18 2 22 28 22 22 0 30 -5
30 -17 0 -10 -4 -18 -10 -18 -5 0 -10 -5 -10 -11 0 -6 7 -9 15 -5 8 3 15 1 15
-4 0 -6 -9 -10 -20 -10 -12 0 -20 7 -20 18 0 14 -2 15 -10 2 -5 -9 -25 -15
-47 -16 -21 -1 -32 1 -25 3 6 3 12 16 12 29 0 13 -6 24 -12 25 -9 0 -9 2 1 6
10 4 10 7 1 13 -9 6 -9 12 0 30 8 15 15 19 19 11 5 -8 16 -9 32 -3z m145 -16
c0 -10 -5 -20 -11 -24 -6 -5 -5 -11 4 -17 11 -7 11 -10 -3 -12 -14 -4 -14 -6
4 -17 19 -12 20 -10 20 37 0 42 3 49 22 54 29 8 36 1 9 -8 -30 -9 -26 -25 7
-25 16 0 22 -3 15 -8 -6 -4 -13 -25 -16 -47 l-4 -40 -1 43 c-2 44 -22 60 -22
18 0 -13 -3 -32 -6 -40 -6 -15 -8 -15 -20 1 -13 17 -13 17 -14 1 0 -28 -20
-21 -20 7 0 14 -6 25 -12 26 -10 0 -10 2 0 6 18 7 15 23 -5 24 -11 0 -13 3 -5
6 6 2 9 9 6 15 -4 6 -1 14 6 18 19 12 48 0 46 -18z m134 3 c0 -18 -5 -25 -19
-25 -16 0 -21 -8 -24 -42 -2 -31 -4 -24 -5 25 -2 65 -1 67 23 67 20 0 25 -5
25 -25z m70 -40 c0 -36 -3 -65 -8 -65 -4 0 -6 18 -4 40 4 35 2 40 -17 40 -16
0 -21 6 -21 25 0 20 5 25 25 25 24 0 25 -2 25 -65z m-35 -3 c-2 -3 0 -13 5
-22 7 -13 5 -21 -5 -30 -11 -9 -15 -9 -15 -1 0 6 -11 11 -24 11 -19 0 -22 4
-19 23 4 18 11 24 34 24 16 0 27 -2 24 -5z m-218 -44 c-3 -8 -6 -5 -6 6 -1 11
2 17 5 13 3 -3 4 -12 1 -19z"/>
<path d="M493 593 c-22 -8 -14 -23 12 -23 14 0 25 4 25 9 0 11 -21 19 -37 14z"/>
<path d="M300 440 c0 -5 5 -10 11 -10 5 0 7 5 4 10 -3 6 -8 10 -11 10 -2 0 -4
-4 -4 -10z"/>
<path d="M330 440 c0 -5 5 -10 10 -10 6 0 10 5 10 10 0 6 -4 10 -10 10 -5 0
-10 -4 -10 -10z"/>
<path d="M360 440 c0 -5 5 -10 10 -10 6 0 10 5 10 10 0 6 -4 10 -10 10 -5 0
-10 -4 -10 -10z"/>
<path d="M358 383 c6 -2 18 -2 25 0 6 3 1 5 -13 5 -14 0 -19 -2 -12 -5z"/>
<path d="M450 440 c0 -5 5 -10 10 -10 6 0 10 5 10 10 0 6 -4 10 -10 10 -5 0
-10 -4 -10 -10z"/>
<path d="M588 453 c7 -3 16 -2 19 1 4 3 -2 6 -13 5 -11 0 -14 -3 -6 -6z"/>
<path d="M588 433 c7 -3 16 -2 19 1 4 3 -2 6 -13 5 -11 0 -14 -3 -6 -6z"/>
<path d="M658 453 c7 -3 16 -2 19 1 4 3 -2 6 -13 5 -11 0 -14 -3 -6 -6z"/>
<path d="M658 433 c7 -3 16 -2 19 1 4 3 -2 6 -13 5 -11 0 -14 -3 -6 -6z"/>
<path d="M620 380 c0 -5 5 -10 10 -10 6 0 10 5 10 10 0 6 -4 10 -10 10 -5 0
-10 -4 -10 -10z"/>
</g>
</svg>
